<?xml version="1.0" standalone="no"?>
<!DOCTYPE svg PUBLIC "-//W3C//DTD SVG 20010904//EN"
 "http://www.w3.org/TR/2001/REC-SVG-20010904/DTD/svg10.dtd">
<svg version="1.0" xmlns="http://www.w3.org/2000/svg"
 width="1126.000000pt" height="1126.000000pt" viewBox="0 0 1126.000000 1126.000000"
 preserveAspectRatio="xMidYMid meet">
<metadata>
Created by potrace 1.11, written by Peter Selinger 2001-2013
</metadata>
<g transform="translate(0.000000,1126.000000) scale(0.100000,-0.100000)"
fill="#000000" stroke="none">
<path d="M5368 11255 c-2 -2 -50 -6 -108 -9 -129 -8 -219 -16 -245 -21 -11 -2
-47 -7 -80 -10 -87 -9 -359 -53 -440 -71 -38 -9 -77 -17 -86 -19 -62 -13 -251
-61 -338 -86 -689 -201 -1304 -513 -1886 -958 -270 -206 -566 -485 -800 -755
-33 -38 -65 -74 -70 -80 -34 -36 -183 -230 -262 -341 -50 -71 -97 -135 -102
-142 -6 -7 -11 -14 -11 -17 0 -9 -125 -201 -132 -204 -5 -2 -8 -7 -8 -12 0 -4
-26 -52 -57 -106 -60 -104 -203 -384 -240 -469 -12 -27 -37 -86 -57 -130 -90
-207 -249 -684 -281 -844 -2 -9 -10 -46 -19 -82 -18 -77 -19 -81 -44 -214 -11
-55 -23 -122 -26 -149 -4 -27 -9 -52 -10 -55 -2 -3 -7 -37 -11 -74 -3 -37 -8
-76 -10 -85 -4 -23 -18 -141 -20 -172 -1 -14 -6 -72 -11 -130 -10 -129 -10
-662 0 -785 4 -49 9 -110 11 -135 2 -25 6 -61 9 -80 5 -34 11 -85 21 -160 4
-35 19 -135 30 -200 61 -372 222 -915 370 -1245 15 -33 34 -76 42 -95 162
-366 368 -713 642 -1080 198 -266 381 -469 652 -725 236 -223 537 -457 811
-630 206 -129 530 -306 693 -377 39 -17 95 -42 125 -55 267 -121 816 -291
1125 -348 28 -5 133 -23 175 -30 19 -3 42 -8 50 -10 8 -2 46 -7 85 -10 38 -4
72 -8 75 -10 3 -1 41 -6 85 -10 44 -4 94 -8 110 -11 184 -24 776 -24 1010 0
17 2 66 7 110 11 44 4 82 8 85 10 3 2 37 6 75 9 39 4 77 9 85 11 18 5 62 13
110 21 362 54 918 222 1290 388 99 45 387 186 420 207 8 5 60 34 115 65 255
145 670 431 800 552 11 10 56 50 100 87 102 88 197 178 356 340 575 587 1028
1336 1294 2141 41 125 119 398 130 456 4 19 25 118 30 138 1 3 5 21 10 40 4
19 9 42 10 50 2 16 15 93 21 125 3 11 7 36 10 55 2 19 9 58 14 85 5 28 12 79
15 115 4 36 8 77 11 93 5 29 10 86 21 242 10 134 9 624 -2 755 -4 58 -9 116
-10 130 -2 33 -17 151 -20 172 -2 9 -7 48 -10 85 -4 37 -9 71 -11 74 -1 3 -6
28 -10 55 -3 27 -8 58 -10 69 -2 11 -9 47 -15 79 -16 89 -74 339 -104 446 -45
165 -177 555 -215 635 -5 11 -20 45 -33 75 -249 573 -551 1051 -959 1515 -124
142 -416 432 -543 540 -193 164 -467 367 -635 470 -45 28 -87 55 -94 60 -13
11 -17 13 -166 98 -462 264 -1005 477 -1510 591 -162 37 -445 87 -575 101 -33
4 -71 9 -85 10 -14 2 -61 7 -105 10 -44 3 -100 8 -125 11 -46 6 -637 13 -642
9z"/>
</g>
</svg>
