<?xml version="1.0" standalone="no"?>
<!DOCTYPE svg PUBLIC "-//W3C//DTD SVG 20010904//EN"
 "http://www.w3.org/TR/2001/REC-SVG-20010904/DTD/svg10.dtd">
<svg version="1.0" xmlns="http://www.w3.org/2000/svg"
 width="2357.000000pt" height="2357.000000pt" viewBox="0 0 2357.000000 2357.000000"
 preserveAspectRatio="xMidYMid meet">
<metadata>
Created by potrace 1.14, written by Peter Selinger 2001-2017
</metadata>
<g transform="translate(0.000000,2357.000000) scale(0.100000,-0.100000)"
fill="#000000" stroke="none">
<path d="M12500 23559 c-36 -5 -96 -16 -135 -26 -67 -17 -73 -17 -155 0 -191
41 -677 30 -846 -19 -100 -29 -92 -94 12 -105 l59 -6 -70 -1 c-38 -1 -124 -7
-190 -13 -121 -10 -165 -25 -165 -54 0 -8 -6 -15 -12 -16 -7 0 -20 -2 -28 -3
-8 -2 -42 -6 -75 -10 -33 -3 -69 -8 -81 -10 -12 -2 -45 -7 -75 -11 -106 -13
-355 -67 -424 -92 -74 -26 -251 -84 -471 -153 -72 -22 -166 -55 -210 -71 -145
-56 -210 -70 -351 -74 -185 -5 -232 -19 -388 -114 -194 -118 -376 -262 -507
-401 -52 -55 -102 -100 -110 -100 -30 0 -310 -227 -458 -372 -36 -35 -112
-115 -170 -178 -140 -153 -135 -149 -228 -198 -161 -88 -394 -322 -550 -554
-64 -95 -175 -309 -235 -453 -58 -140 -115 -336 -105 -365 2 -6 32 44 67 112
36 67 91 165 123 216 32 51 58 97 58 102 0 4 3 10 8 12 4 2 23 27 42 55 31 47
50 65 50 47 0 -3 -25 -47 -55 -98 -30 -51 -71 -129 -91 -172 -20 -44 -55 -117
-77 -164 -65 -140 -104 -268 -171 -574 -36 -160 -70 -318 -76 -351 -7 -33 -17
-66 -23 -74 -14 -16 -45 -334 -52 -530 -4 -92 -10 -150 -18 -159 -16 -20 -15
-786 1 -967 33 -354 52 -621 46 -668 -8 -70 10 -289 47 -557 29 -214 65 -381
95 -441 11 -21 10 -33 -2 -68 -23 -68 -59 -241 -69 -331 -5 -49 -16 -136 -20
-170 -3 -19 -7 -66 -10 -105 -3 -38 -7 -86 -10 -105 -10 -88 -18 -313 -19
-505 -1 -194 1 -215 22 -275 35 -99 78 -156 244 -322 84 -85 213 -218 287
-296 74 -79 182 -182 240 -230 58 -48 115 -95 126 -106 43 -39 122 -96 174
-123 41 -21 57 -35 62 -56 34 -129 340 -566 509 -727 28 -26 80 -99 125 -175
74 -124 198 -302 247 -355 13 -14 36 -43 52 -64 82 -110 357 -362 533 -488
107 -78 321 -205 416 -248 42 -19 76 -40 77 -47 0 -7 15 -47 34 -90 62 -141
110 -315 131 -478 4 -27 8 -63 11 -80 18 -137 23 -388 15 -745 -3 -128 -16
-295 -20 -247 0 9 -4 17 -7 17 -7 0 -236 -76 -264 -87 -8 -3 -19 -7 -25 -9
-11 -2 -243 -85 -310 -110 -22 -8 -44 -16 -50 -18 -5 -2 -23 -8 -40 -15 -16
-6 -41 -16 -55 -21 -64 -23 -319 -124 -355 -141 -63 -28 -99 -42 -107 -41 -5
1 -8 -3 -8 -8 0 -6 -7 -10 -15 -10 -8 0 -23 -4 -33 -9 -9 -6 -53 -26 -97 -47
-44 -20 -216 -103 -382 -185 -166 -82 -307 -149 -313 -149 -5 0 -10 -4 -10
-10 0 -5 -7 -10 -16 -10 -9 0 -45 -16 -80 -35 -36 -20 -102 -51 -147 -69 -275
-111 -536 -234 -715 -337 -141 -81 -338 -217 -403 -279 -29 -27 -53 -45 -94
-70 -22 -13 -42 -26 -45 -29 -3 -4 -32 -28 -65 -55 -176 -145 -352 -377 -497
-656 -25 -46 -109 -232 -112 -245 -1 -5 -12 -30 -23 -55 -11 -25 -30 -70 -41
-100 -11 -30 -32 -86 -47 -125 -15 -38 -29 -79 -31 -90 -2 -11 -8 -31 -13 -45
-12 -33 -22 -64 -22 -67 0 -2 -7 -22 -15 -45 -19 -52 -93 -311 -110 -383 -11
-45 -13 -50 -14 -50 -1 0 -3 -7 -5 -16 -1 -9 -11 -43 -20 -75 -9 -33 -19 -68
-21 -79 -2 -11 -12 -50 -23 -88 -11 -37 -20 -70 -20 -72 -1 -3 -1 -6 -2 -7 0
-2 -2 -12 -4 -23 -2 -11 -13 -58 -24 -105 -12 -47 -21 -95 -21 -107 0 -12 -7
-26 -15 -30 -8 -5 -17 -29 -19 -53 -9 -80 -17 -134 -28 -175 -5 -22 -12 -47
-13 -56 -9 -44 -69 -226 -79 -238 -6 -8 -9 -15 -7 -15 2 -1 1 -12 -3 -26 -10
-34 -115 -318 -131 -355 -7 -16 -30 -82 -50 -145 -20 -63 -40 -124 -45 -135
-4 -11 -18 -58 -30 -105 -12 -47 -28 -98 -36 -115 -53 -112 -61 -186 -24 -217
18 -14 19 -21 9 -39 -16 -31 3 -90 39 -116 30 -22 116 -61 186 -83 36 -11 38
-14 33 -44 -15 -77 -18 -93 -23 -116 -3 -14 -8 -38 -11 -55 -2 -16 -6 -41 -9
-55 -2 -14 -7 -43 -10 -65 -3 -22 -8 -47 -11 -55 -3 -8 -7 -24 -8 -35 -2 -20
-12 -81 -19 -120 -2 -11 -7 -45 -11 -75 -3 -30 -8 -67 -11 -81 -2 -15 -6 -47
-9 -70 -3 -24 -7 -60 -10 -79 -5 -41 -13 -132 -20 -227 -3 -38 -10 -108 -15
-158 -11 -95 -18 -197 -26 -355 -6 -138 -6 -844 1 -990 3 -69 7 -168 9 -220 6
-132 18 -321 22 -345 2 -12 6 -57 10 -100 3 -44 7 -98 9 -120 2 -22 4 -48 4
-57 1 -14 13 -16 86 -15 47 1 85 -2 85 -6 0 -5 5 -5 11 -1 10 6 67 6 162 1 21
-1 41 1 43 4 2 4 19 3 38 -1 19 -4 37 -5 40 -2 5 4 151 6 166 2 3 -1 32 -1 65
0 33 2 75 2 93 1 48 -2 50 -2 272 -1 113 1 207 0 210 0 3 -1 32 -1 65 0 33 2
75 2 93 1 48 -2 50 -2 272 -1 113 1 207 0 210 0 3 -1 32 -1 65 0 154 5 195 4
195 -4 0 -5 6 -3 14 3 19 16 81 275 101 421 3 25 12 83 20 130 18 112 26 159
30 195 2 17 7 53 11 80 3 28 7 57 9 65 3 18 17 126 29 219 3 24 8 62 11 85 3
23 7 57 10 76 3 19 7 55 11 80 3 25 8 61 10 80 2 19 5 55 8 80 28 244 35 308
43 440 8 132 8 571 1 650 -11 105 -19 172 -28 213 -7 32 -5 39 8 43 94 28 132
94 178 304 8 36 16 72 18 80 3 8 5 24 5 34 1 31 15 8 17 -27 0 -18 4 -54 8
-82 3 -27 9 -68 12 -90 3 -22 7 -47 9 -55 2 -8 7 -31 10 -50 3 -19 15 -80 26
-134 11 -54 22 -108 23 -120 2 -12 6 -32 10 -46 3 -14 8 -36 10 -50 2 -14 12
-56 21 -95 15 -58 18 -117 19 -345 1 -229 -7 -517 -19 -705 -1 -22 -6 -89 -9
-150 -4 -60 -9 -128 -11 -150 -1 -22 -6 -80 -10 -130 -3 -49 -8 -110 -11 -135
-2 -25 -7 -65 -9 -90 -4 -42 -11 -113 -20 -220 -5 -55 -15 -153 -21 -200 -2
-19 -7 -69 -9 -110 -3 -41 -8 -91 -10 -110 -3 -19 -8 -68 -11 -108 l-6 -72 29
0 c15 0 35 0 43 0 8 0 116 -1 240 -1 124 1 232 1 240 1 8 -1 71 0 140 0 69 1
130 1 135 0 6 -1 37 -1 70 0 33 2 75 2 93 1 48 -2 47 -2 182 -1 69 1 130 0
135 -1 6 -1 15 0 20 1 25 5 243 2 252 -3 6 -4 13 -4 16 -1 7 7 217 11 217 4 0
-7 48 -5 55 2 3 3 21 2 40 -2 19 -4 37 -5 40 -2 3 3 43 4 88 1 88 -4 4326 -5
4662 -1 110 2 205 3 210 2 6 -1 37 -1 70 0 33 2 75 2 93 1 48 -2 50 -2 272 -1
113 1 207 0 210 0 3 -1 32 -1 65 0 33 2 76 2 95 1 19 -1 46 -1 60 -1 125 4
440 4 440 0 0 -7 48 -5 55 2 3 3 21 2 40 -2 19 -4 37 -5 40 -2 5 5 91 5 198
-1 21 -1 41 1 43 4 2 4 19 3 38 -1 19 -4 37 -5 40 -3 2 3 49 4 103 4 54 -1
107 -1 118 -1 11 0 43 0 71 1 l51 0 4 62 c6 105 3 1020 -5 1227 -16 431 -31
756 -41 875 -5 62 -13 196 -19 345 -8 164 -17 336 -21 384 -5 46 -4 48 18 42
12 -4 38 -10 58 -13 32 -5 36 -8 35 -34 -1 -16 -5 -29 -9 -29 -4 0 -4 -7 1
-16 5 -9 6 -31 3 -48 -7 -33 -6 -267 3 -406 2 -47 7 -141 10 -210 5 -116 12
-198 22 -260 2 -14 6 -52 10 -85 3 -33 7 -71 9 -85 2 -14 6 -54 10 -90 4 -36
10 -83 15 -105 4 -22 8 -47 8 -55 0 -8 3 -35 7 -60 3 -25 8 -61 10 -80 3 -19
9 -64 15 -100 10 -62 13 -83 25 -175 3 -22 7 -51 10 -65 3 -14 9 -52 14 -85
18 -112 21 -130 26 -160 3 -16 12 -66 20 -110 8 -44 16 -92 19 -107 2 -15 12
-64 21 -108 9 -44 18 -91 19 -103 2 -12 6 -29 8 -37 5 -15 28 -108 32 -132 1
-7 11 -50 21 -95 l19 -82 116 0 c63 0 120 0 125 -1 6 -1 15 -1 20 0 25 5 243
2 252 -3 6 -4 13 -4 16 -1 7 7 217 11 217 4 0 -7 48 -5 55 2 3 3 21 2 40 -2
19 -4 37 -5 40 -2 5 5 91 5 198 -1 21 -1 41 1 43 4 2 4 19 3 38 -1 19 -4 37
-6 40 -3 6 7 186 9 186 3 0 -7 48 -5 55 2 3 3 21 2 40 -2 19 -4 37 -5 40 -2 5
5 91 5 198 -1 21 -1 41 1 43 4 2 4 19 3 38 -1 19 -4 37 -5 40 -2 3 3 50 4 103
3 115 -2 91 -2 273 0 l145 0 2 77 c6 269 3 503 -11 1007 -8 287 -28 735 -41
925 -3 41 -8 113 -10 160 -5 89 -12 180 -21 265 -3 28 -7 73 -9 100 -5 66 -13
119 -25 180 -16 84 -20 108 -26 170 -3 33 -9 66 -14 75 -4 8 -6 20 -3 26 2 6
-4 40 -12 75 -9 35 -18 75 -21 89 -2 14 -21 75 -41 135 -21 61 -37 113 -38
117 0 3 -3 10 -7 14 -19 18 -4 34 50 54 112 42 198 90 249 140 62 61 71 90 44
150 -11 25 -22 56 -24 70 -7 34 -60 175 -88 232 -13 27 -31 51 -41 54 -15 4
-17 9 -7 20 10 13 6 18 -12 16 -4 -1 -13 13 -19 31 -7 18 -23 55 -35 82 -12
28 -28 65 -36 84 -14 33 -177 360 -234 471 -16 30 -30 57 -30 60 -1 3 -46 95
-99 205 -112 229 -125 257 -231 495 -86 194 -123 276 -165 365 -50 104 -96
233 -125 350 -34 137 -76 264 -120 364 -24 55 -70 176 -101 268 -31 92 -67
195 -81 228 -35 85 -131 276 -148 296 -8 8 -15 19 -15 23 0 5 -29 45 -64 90
-92 118 -261 284 -331 324 -33 20 -62 38 -65 42 -4 5 -140 114 -185 148 -5 4
-55 37 -110 74 -212 138 -439 254 -763 389 -157 65 -239 103 -677 319 -387
190 -484 236 -690 320 -44 18 -93 40 -110 48 -16 9 -30 15 -30 13 0 -3 -15 3
-150 54 -169 63 -284 105 -291 105 -3 0 -20 6 -37 13 -31 13 -92 36 -112 41
-5 2 -17 6 -25 9 -8 3 -37 13 -65 22 -27 10 -57 20 -65 23 -8 3 -19 6 -25 8
-5 1 -23 7 -39 13 l-29 11 7 143 c3 78 9 178 12 222 10 159 21 388 29 653 l5
162 41 53 c39 50 110 130 199 227 23 25 55 66 72 93 17 26 35 47 40 47 4 0 8
4 8 9 0 13 124 194 174 256 23 27 77 83 120 125 44 41 120 113 169 160 83 79
211 227 282 325 135 188 165 251 271 572 171 516 233 795 250 1116 3 67 13
147 22 177 14 47 16 125 17 540 l1 485 33 145 c39 174 39 175 46 220 3 20 7
45 9 57 30 153 66 449 82 663 8 110 8 363 0 465 -9 103 -9 172 -1 185 12 19
15 57 20 215 2 88 6 169 8 180 3 11 8 52 11 90 4 39 9 79 11 90 3 11 10 76 15
145 13 146 18 181 32 235 13 51 14 55 27 145 22 158 28 235 36 485 8 226 8
187 1 315 -4 58 -8 148 -11 200 -2 52 -5 95 -5 95 -1 0 -3 16 -5 35 -4 35 -16
113 -21 139 -1 7 6 25 16 40 16 23 17 34 9 91 -5 36 -13 79 -18 97 -8 28 -6
32 14 37 13 3 26 13 29 22 7 19 -55 137 -131 245 -29 42 -53 79 -53 83 0 3 12
1 27 -5 60 -22 93 12 63 63 -78 131 -306 267 -447 268 -17 0 -38 3 -47 6 -44
17 2 40 157 78 193 47 298 87 404 154 45 29 58 62 23 62 -11 0 -94 -25 -185
-55 -90 -30 -167 -55 -171 -55 -4 0 21 19 55 42 84 56 160 133 193 193 14 28
39 101 54 164 23 97 25 116 13 125 -10 8 -14 38 -15 111 -1 65 -8 125 -22 172
-14 51 -17 84 -12 113 8 44 6 148 -5 213 -8 47 -52 176 -66 193 -6 7 -23 56
-40 110 -17 55 -62 159 -100 233 -38 74 -71 141 -73 150 -2 9 -5 23 -8 31 -3
8 -16 44 -29 80 -13 36 -36 87 -51 113 -15 26 -28 50 -28 52 0 14 -81 127
-147 207 -127 154 -282 295 -420 384 -32 20 -69 44 -83 54 -90 61 -253 117
-269 92 -4 -7 -30 9 -69 43 -150 131 -327 234 -472 275 -43 12 -121 24 -184
27 -98 5 -115 9 -165 37 -261 147 -626 228 -881 195z m-2837 -14178 c-3 -13
-10 -18 -20 -14 -14 5 -13 8 3 20 23 17 23 17 17 -6z m-63 -456 c0 -8 -2 -15
-4 -15 -2 0 -6 7 -10 15 -3 8 -1 15 4 15 6 0 10 -7 10 -15z"/>
</g>
</svg>
